<svg xmlns="http://www.w3.org/2000/svg" viewBox="2 -14 236 236"><defs><linearGradient id="g" x1="0" y1="0" x2=".15" y2="1"><stop offset="0" stop-color="#2a5286"/><stop offset="1" stop-color="#0f2338"/></linearGradient></defs><rect x="2" y="-14" width="236" height="236" rx="50" fill="#fff"/><rect x="5" y="-11" width="230" height="230" rx="47" fill="none" stroke="#d6dce6" stroke-width="6"/><path d="M30,32 Q60,18 137,80" fill="none" stroke="#2f6fb0" stroke-width="14" stroke-linecap="round"/><path d="M128,14 Q129,46 137,80" fill="none" stroke="#d9a441" stroke-width="14" stroke-linecap="round"/><path d="M210,36 Q182,20 137,80" fill="none" stroke="#b8433a" stroke-width="14" stroke-linecap="round"/><path d="M46.83,72.54 L57.03,66.22 L85.66,62.00 L117.21,75.38 L135.00,76.97 L154.34,88.54 L151.24,103.09 L166.86,110.14 L173.06,128.10 L188.06,139.02 L185.13,145.42 L193.17,149.79 L181.72,152.98 L156.35,151.67 L152.17,145.78 L143.20,149.20 L146.29,156.91 L134.53,170.58 L126.96,185.34 L116.12,190.00 L108.39,170.36 L113.04,152.04 L111.65,133.19 L86.89,107.60 L73.12,89.49 L59.82,76.76 Z" fill="url(#g)" stroke="#0a1a2c" stroke-width="3" stroke-linejoin="round"/><circle cx="30" cy="32" r="14" fill="#2f6fb0"/><circle cx="128" cy="14" r="14" fill="#d9a441"/><circle cx="210" cy="36" r="14" fill="#b8433a"/></svg>
